<svg width="394" height="138" viewBox="0 0 394 138" fill="none" xmlns="http://www.w3.org/2000/svg">
<g clip-path="url(#clip0_3_2)">
<path d="M392.867 123H386.255L385.859 118.734C384.539 120.258 382.934 121.456 381.045 122.33C379.156 123.183 377.094 123.609 374.86 123.609C372.016 123.609 369.467 122.919 367.212 121.537C364.958 120.156 363.18 118.277 361.88 115.901C360.601 113.504 359.961 110.792 359.961 107.766C359.961 104.739 360.601 102.038 361.88 99.6609C363.18 97.2641 364.958 95.375 367.212 93.9938C369.467 92.6125 372.016 91.9219 374.86 91.9219C376.973 91.9219 378.923 92.2977 380.71 93.0492C382.498 93.8008 384.052 94.857 385.372 96.218V77.2969H392.867V123ZM376.536 116.876C378.161 116.876 379.644 116.51 380.984 115.779C382.325 115.027 383.391 114.002 384.184 112.702C384.976 111.402 385.372 109.919 385.372 108.253V107.187C385.372 105.541 384.976 104.079 384.184 102.799C383.391 101.499 382.325 100.484 380.984 99.7523C379.644 99.0008 378.161 98.625 376.536 98.625C374.83 98.625 373.306 99.0312 371.966 99.8438C370.625 100.636 369.569 101.723 368.797 103.104C368.025 104.465 367.639 106.009 367.639 107.735C367.639 109.482 368.025 111.046 368.797 112.427C369.569 113.809 370.625 114.895 371.966 115.688C373.306 116.48 374.83 116.876 376.536 116.876Z" fill="#D8216E"/>
<path d="M351.931 84.457C350.874 84.457 349.981 84.0914 349.249 83.3602C348.538 82.6086 348.183 81.7047 348.183 80.6484C348.183 79.6125 348.538 78.7289 349.249 77.9977C349.981 77.2461 350.874 76.8703 351.931 76.8703C353.007 76.8703 353.911 77.2461 354.642 77.9977C355.374 78.7289 355.739 79.6125 355.739 80.6484C355.739 81.7047 355.374 82.6086 354.642 83.3602C353.911 84.0914 353.007 84.457 351.931 84.457ZM355.678 123H348.183V92.5313H355.678V123Z" fill="#D8216E"/>
<path d="M332.017 123H324.522V92.5312H331.042L331.317 98.0766C332.373 96.1266 333.795 94.6133 335.582 93.5367C337.39 92.4602 339.462 91.9219 341.798 91.9219C342.407 91.9219 343.027 91.9625 343.656 92.0437C344.306 92.125 344.946 92.2469 345.576 92.4094L344.662 99.1734C343.403 98.8078 342.184 98.625 341.006 98.625C339.218 98.625 337.644 99.0414 336.283 99.8742C334.942 100.707 333.896 101.865 333.145 103.348C332.393 104.81 332.017 106.516 332.017 108.466V123Z" fill="#D8216E"/>
<path d="M309.545 87.9305C308.103 86.4883 306.376 85.3813 304.365 84.6094C302.375 83.8375 300.252 83.4516 297.997 83.4516C295.702 83.4516 293.6 83.8477 291.69 84.6398C289.801 85.432 288.166 86.5695 286.785 88.0523C285.403 89.5148 284.337 91.2617 283.585 93.293C282.834 95.3039 282.458 97.5383 282.458 99.9961C282.458 102.474 282.834 104.749 283.585 106.821C284.357 108.873 285.434 110.65 286.815 112.153C288.217 113.656 289.872 114.814 291.782 115.627C293.691 116.439 295.793 116.845 298.089 116.845C300.079 116.845 301.907 116.541 303.573 115.931C305.239 115.302 306.701 114.408 307.96 113.25C309.24 112.072 310.286 110.66 311.099 109.015C311.911 107.37 312.45 105.541 312.714 103.53H298.271V97.3148H319.813L320.026 100.362C320.026 103.835 319.488 107.014 318.411 109.898C317.355 112.763 315.842 115.251 313.871 117.363C311.901 119.455 309.565 121.07 306.864 122.208C304.162 123.345 301.176 123.914 297.906 123.914C294.534 123.914 291.406 123.315 288.521 122.116C285.657 120.918 283.149 119.252 280.996 117.12C278.863 114.966 277.197 112.448 275.999 109.563C274.821 106.679 274.232 103.541 274.232 100.148C274.232 96.7766 274.821 93.6484 275.999 90.7641C277.197 87.8594 278.853 85.3305 280.965 83.1773C283.098 81.0242 285.596 79.3586 288.46 78.1805C291.345 76.982 294.463 76.3828 297.814 76.3828C301.003 76.3828 304.05 76.9312 306.955 78.0281C309.88 79.125 312.49 80.6992 314.785 82.7508L309.545 87.9305Z" fill="#D8216E"/>
<path d="M253.77 138.234H245.757L252.094 122.878L236.982 92.5312H245.422L255.659 114.316L264.678 92.5312H272.691L253.77 138.234Z" fill="#D8216E"/>
<path d="M236.812 122.208C234.578 123.142 232.415 123.609 230.322 123.609C228.19 123.609 226.311 123.152 224.686 122.238C223.081 121.324 221.822 120.055 220.908 118.43C220.014 116.784 219.567 114.875 219.567 112.702V99.2344H214.235V92.5312H219.963V84.9141H227.062V92.5312H235.746V99.2344H227.062V111.33C227.062 113.057 227.529 114.418 228.464 115.413C229.419 116.409 230.607 116.906 232.029 116.906C233.288 116.906 234.537 116.52 235.776 115.748L236.812 122.208Z" fill="#D8216E"/>
<path d="M206.631 84.457C205.575 84.457 204.681 84.0914 203.95 83.3602C203.239 82.6086 202.884 81.7047 202.884 80.6484C202.884 79.6125 203.239 78.7289 203.95 77.9977C204.681 77.2461 205.575 76.8703 206.631 76.8703C207.708 76.8703 208.612 77.2461 209.343 77.9977C210.074 78.7289 210.44 79.6125 210.44 80.6484C210.44 81.7047 210.074 82.6086 209.343 83.3602C208.612 84.0914 207.708 84.457 206.631 84.457ZM210.379 123H202.884V92.5313H210.379V123Z" fill="#D8216E"/>
<path d="M198.784 118.308C197.301 119.994 195.503 121.304 193.391 122.238C191.278 123.152 188.973 123.609 186.474 123.609C183.387 123.609 180.614 122.919 178.156 121.537C175.719 120.156 173.789 118.277 172.367 115.901C170.966 113.504 170.265 110.792 170.265 107.766C170.265 104.739 170.966 102.038 172.367 99.6609C173.789 97.2641 175.719 95.375 178.156 93.9937C180.614 92.6125 183.387 91.9219 186.474 91.9219C188.952 91.9219 191.238 92.3789 193.33 93.293C195.442 94.207 197.24 95.4969 198.723 97.1625L194.335 101.824C193.421 100.829 192.314 100.057 191.014 99.5086C189.734 98.9602 188.373 98.6859 186.931 98.6859C185.184 98.6859 183.63 99.0719 182.27 99.8438C180.929 100.616 179.873 101.682 179.101 103.043C178.349 104.404 177.973 105.968 177.973 107.735C177.973 109.502 178.349 111.077 179.101 112.458C179.873 113.819 180.929 114.895 182.27 115.688C183.63 116.459 185.184 116.845 186.931 116.845C188.373 116.845 189.745 116.571 191.045 116.023C192.345 115.454 193.441 114.682 194.335 113.707L198.784 118.308Z" fill="#D8216E"/>
<path d="M162.235 84.457C161.178 84.457 160.285 84.0914 159.553 83.3602C158.842 82.6086 158.487 81.7047 158.487 80.6484C158.487 79.6125 158.842 78.7289 159.553 77.9977C160.285 77.2461 161.178 76.8703 162.235 76.8703C163.311 76.8703 164.215 77.2461 164.946 77.9977C165.678 78.7289 166.043 79.6125 166.043 80.6484C166.043 81.7047 165.678 82.6086 164.946 83.3602C164.215 84.0914 163.311 84.457 162.235 84.457ZM165.982 123H158.487V92.5313H165.982V123Z" fill="#D8216E"/>
<path d="M152.163 123H144.15V77.2969H152.163V123Z" fill="#D8216E"/>
<path d="M114.578 138.234H107.082V92.5312H113.694L114.06 96.7969C115.4 95.2734 117.015 94.0852 118.904 93.232C120.793 92.3586 122.855 91.9219 125.089 91.9219C127.933 91.9219 130.472 92.6125 132.707 93.9937C134.961 95.375 136.729 97.2641 138.008 99.6609C139.308 102.038 139.958 104.739 139.958 107.766C139.958 110.792 139.308 113.504 138.008 115.901C136.729 118.277 134.961 120.156 132.707 121.537C130.472 122.919 127.933 123.609 125.089 123.609C122.997 123.609 121.057 123.234 119.27 122.482C117.482 121.73 115.918 120.674 114.578 119.313V138.234ZM123.475 116.845C125.181 116.845 126.694 116.459 128.014 115.688C129.355 114.895 130.391 113.819 131.122 112.458C131.874 111.077 132.25 109.502 132.25 107.735C132.25 105.968 131.874 104.404 131.122 103.043C130.371 101.662 129.335 100.585 128.014 99.8133C126.694 99.0211 125.181 98.625 123.475 98.625C121.87 98.625 120.418 98.9906 119.118 99.7219C117.818 100.433 116.772 101.418 115.979 102.677C115.187 103.916 114.72 105.338 114.578 106.943V108.619C114.72 110.223 115.177 111.645 115.949 112.884C116.741 114.123 117.787 115.098 119.087 115.809C120.387 116.5 121.85 116.845 123.475 116.845Z" fill="#D8216E"/>
<path d="M101.429 123H93.9334V107.37C93.9334 104.607 93.3544 102.464 92.1966 100.941C91.0591 99.3969 89.4443 98.625 87.3521 98.625C85.2396 98.625 83.5841 99.3969 82.3857 100.941C81.2076 102.484 80.6185 104.627 80.6185 107.37V123H73.1232V107.37C73.1232 104.607 72.5443 102.464 71.3865 100.941C70.2287 99.3969 68.6138 98.625 66.542 98.625C64.4091 98.625 62.7435 99.3969 61.5451 100.941C60.3669 102.484 59.7779 104.627 59.7779 107.37V123H52.2826V92.5312H58.2849L58.5591 97.7109C59.5951 95.8219 60.9662 94.3898 62.6724 93.4148C64.399 92.4195 66.4302 91.9219 68.7662 91.9219C71.1834 91.9219 73.2654 92.45 75.0123 93.5062C76.7795 94.5422 78.1302 96.0352 79.0646 97.9852C80.0802 95.9945 81.4716 94.4914 83.2388 93.4758C85.006 92.4398 87.088 91.9219 89.4849 91.9219C93.2427 91.9219 96.1677 93.1203 98.2599 95.5172C100.372 97.8937 101.429 101.205 101.429 105.45V123Z" fill="#D8216E"/>
<path d="M42.1804 84.457C41.1241 84.457 40.2303 84.0914 39.4991 83.3602C38.7882 82.6086 38.4327 81.7047 38.4327 80.6484C38.4327 79.6125 38.7882 78.7289 39.4991 77.9977C40.2303 77.2461 41.1241 76.8703 42.1804 76.8703C43.2569 76.8703 44.1608 77.2461 44.8921 77.9977C45.6233 78.7289 45.9889 79.6125 45.9889 80.6484C45.9889 81.7047 45.6233 82.6086 44.8921 83.3602C44.1608 84.0914 43.2569 84.457 42.1804 84.457ZM45.928 123H38.4327V92.5313H45.928V123Z" fill="#D8216E"/>
<path d="M1 118.247L4.80859 112.092C6.21016 113.189 7.56094 114.103 8.86094 114.834C10.1609 115.545 11.4711 116.073 12.7914 116.419C14.1117 116.764 15.4523 116.937 16.8133 116.937C18.5602 116.937 20.0734 116.673 21.3531 116.145C22.6531 115.596 23.6586 114.845 24.3695 113.89C25.0805 112.935 25.4359 111.818 25.4359 110.538C25.4359 109.096 24.9992 107.898 24.1258 106.943C23.2727 105.968 22.1453 105.135 20.7438 104.445C19.3422 103.734 17.8391 103.043 16.2344 102.373C14.7719 101.763 13.2891 101.103 11.7859 100.392C10.3031 99.6813 8.95234 98.8383 7.73359 97.8633C6.51484 96.868 5.52969 95.6695 4.77812 94.268C4.04687 92.8664 3.68125 91.1703 3.68125 89.1797C3.68125 86.6 4.33125 84.3555 5.63125 82.4461C6.93125 80.5164 8.72891 79.0336 11.0242 77.9977C13.3195 76.9414 15.9398 76.4133 18.8852 76.4133C20.957 76.4133 23.0797 76.6875 25.2531 77.2359C27.4469 77.7641 29.6102 78.5766 31.743 79.6734L28.5438 86.1633C27.1016 85.3102 25.568 84.65 23.943 84.1828C22.318 83.6953 20.7641 83.4516 19.2812 83.4516C17.8187 83.4516 16.5289 83.6852 15.4117 84.1523C14.3148 84.5992 13.4516 85.2492 12.8219 86.1023C12.2125 86.9352 11.9078 87.9102 11.9078 89.0273C11.9078 90.3477 12.3141 91.4648 13.1266 92.3789C13.9594 93.293 15.0461 94.1055 16.3867 94.8164C17.7273 95.507 19.1594 96.1875 20.6828 96.8578C22.2063 97.5281 23.7297 98.2492 25.2531 99.0211C26.7969 99.7727 28.1984 100.666 29.4578 101.702C30.7375 102.738 31.7531 103.977 32.5047 105.42C33.2766 106.862 33.6625 108.598 33.6625 110.63C33.6625 113.27 32.9719 115.596 31.5906 117.607C30.2297 119.598 28.3102 121.152 25.832 122.269C23.3539 123.366 20.4594 123.914 17.1484 123.914C14.1828 123.914 11.3391 123.437 8.61719 122.482C5.89531 121.527 3.35625 120.116 1 118.247Z" fill="#D8216E"/>
<rect x="162.894" y="13.2383" width="24.831" height="9.02944" transform="rotate(0.0371951 162.894 13.2383)" fill="#FFC672"/>
<rect x="190.734" y="13.2563" width="21.8211" height="9.02944" transform="rotate(0.0371951 190.734 13.2563)" fill="#FFC672"/>
<rect x="214.813" y="13.272" width="15.8015" height="9.02944" transform="rotate(0.0371951 214.813 13.272)" fill="#FFC672"/>
<rect x="200.501" y="37.3412" width="30.0981" height="9.02944" transform="rotate(0.0371951 200.501 37.3412)" fill="#FFC672"/>
<rect x="162.886" y="25.2775" width="53.4242" height="9.02944" transform="rotate(0.0371951 162.886 25.2775)" fill="#FFC672"/>
<rect x="218.567" y="25.3137" width="12.0393" height="9.02944" transform="rotate(0.0371951 218.567 25.3137)" fill="#FFC672"/>
<rect x="162.878" y="37.3168" width="35.3653" height="9.02944" transform="rotate(0.0371951 162.878 37.3168)" fill="#FFC672"/>
</g>
<defs>
<clipPath id="clip0_3_2">
<rect width="394" height="138" fill="white"/>
</clipPath>
</defs>
</svg>
